<mxfile host="app.diagrams.net" modified="2021-05-20T07:54:38.007Z" agent="5.0 (Windows NT 10.0; Win64; x64) AppleWebKit/537.36 (KHTML, like Gecko) Chrome/90.0.4430.93 Safari/537.36 Edg/90.0.818.56" etag="Wc7z481PDtwNH07RZinl" version="14.6.13" type="github">
  <diagram id="yv8S7H3C6a8QwYX7NnFu" name="第 1 页">
    <mxGraphModel dx="868" dy="450" grid="1" gridSize="10" guides="1" tooltips="1" connect="1" arrows="1" fold="1" page="1" pageScale="1" pageWidth="827" pageHeight="1169" math="0" shadow="0">
      <root>
        <mxCell id="0" />
        <mxCell id="1" parent="0" />
        <mxCell id="sm8_QsKVWfmT69e21qXw-1" value="" style="rounded=0;whiteSpace=wrap;html=1;strokeWidth=2;fillColor=#E6E6E6;" vertex="1" parent="1">
          <mxGeometry x="79" y="200" width="670" height="360" as="geometry" />
        </mxCell>
        <mxCell id="sm8_QsKVWfmT69e21qXw-2" value="" style="rounded=0;whiteSpace=wrap;html=1;strokeWidth=2;" vertex="1" parent="1">
          <mxGeometry x="100" y="230" width="170" height="310" as="geometry" />
        </mxCell>
        <mxCell id="sm8_QsKVWfmT69e21qXw-3" value="" style="rounded=0;whiteSpace=wrap;html=1;strokeWidth=2;" vertex="1" parent="1">
          <mxGeometry x="294" y="230" width="196" height="310" as="geometry" />
        </mxCell>
        <mxCell id="sm8_QsKVWfmT69e21qXw-4" value="" style="rounded=0;whiteSpace=wrap;html=1;strokeWidth=2;" vertex="1" parent="1">
          <mxGeometry x="510" y="230" width="210" height="310" as="geometry" />
        </mxCell>
        <mxCell id="sm8_QsKVWfmT69e21qXw-5" value="Stack 栈" style="text;html=1;strokeColor=none;fillColor=none;align=center;verticalAlign=middle;whiteSpace=wrap;rounded=0;fontSize=16;fontFamily=Comic Sans MS;" vertex="1" parent="1">
          <mxGeometry x="90" y="210" width="80" height="20" as="geometry" />
        </mxCell>
        <mxCell id="sm8_QsKVWfmT69e21qXw-6" value="Heap 堆&lt;span style=&quot;color: rgba(0 , 0 , 0 , 0) ; font-family: monospace ; font-size: 0px&quot;&gt;%3CmxGraphModel%3E%3Croot%3E%3CmxCell%20id%3D%220%22%2F%3E%3CmxCell%20id%3D%221%22%20parent%3D%220%22%2F%3E%3CmxCell%20id%3D%222%22%20value%3D%22Stack%20%E6%A0%88%22%20style%3D%22text%3Bhtml%3D1%3BstrokeColor%3Dnone%3BfillColor%3Dnone%3Balign%3Dcenter%3BverticalAlign%3Dmiddle%3BwhiteSpace%3Dwrap%3Brounded%3D0%3BfontSize%3D16%3BfontFamily%3DComic%20Sans%20MS%3B%22%20vertex%3D%221%22%20parent%3D%221%22%3E%3CmxGeometry%20x%3D%2290%22%20y%3D%22210%22%20width%3D%2280%22%20height%3D%2220%22%20as%3D%22geometry%22%2F%3E%3C%2FmxCell%3E%3C%2Froot%3E%3C%2FmxGraphModel%3E&lt;/span&gt;" style="text;html=1;strokeColor=none;fillColor=none;align=center;verticalAlign=middle;whiteSpace=wrap;rounded=0;fontSize=16;fontFamily=Comic Sans MS;" vertex="1" parent="1">
          <mxGeometry x="290" y="210" width="80" height="20" as="geometry" />
        </mxCell>
        <mxCell id="sm8_QsKVWfmT69e21qXw-7" value="Method area 方法区" style="text;html=1;strokeColor=none;fillColor=none;align=center;verticalAlign=middle;whiteSpace=wrap;rounded=0;fontSize=16;fontFamily=Comic Sans MS;" vertex="1" parent="1">
          <mxGeometry x="500" y="210" width="170" height="20" as="geometry" />
        </mxCell>
        <mxCell id="sm8_QsKVWfmT69e21qXw-8" value="JVM" style="text;html=1;strokeColor=none;fillColor=none;align=center;verticalAlign=middle;whiteSpace=wrap;rounded=0;fontFamily=Comic Sans MS;fontSize=16;" vertex="1" parent="1">
          <mxGeometry x="79" y="180" width="40" height="20" as="geometry" />
        </mxCell>
        <mxCell id="sm8_QsKVWfmT69e21qXw-26" style="edgeStyle=orthogonalEdgeStyle;rounded=0;orthogonalLoop=1;jettySize=auto;html=1;exitX=1;exitY=0.5;exitDx=0;exitDy=0;entryX=0;entryY=0.5;entryDx=0;entryDy=0;fontFamily=Comic Sans MS;fontSize=16;strokeWidth=2;strokeColor=#0000FF;" edge="1" parent="1" source="sm8_QsKVWfmT69e21qXw-9" target="sm8_QsKVWfmT69e21qXw-13">
          <mxGeometry relative="1" as="geometry">
            <Array as="points">
              <mxPoint x="380" y="505" />
              <mxPoint x="380" y="265" />
            </Array>
          </mxGeometry>
        </mxCell>
        <mxCell id="sm8_QsKVWfmT69e21qXw-34" style="edgeStyle=orthogonalEdgeStyle;rounded=0;orthogonalLoop=1;jettySize=auto;html=1;exitX=1;exitY=0.5;exitDx=0;exitDy=0;entryX=0;entryY=0.5;entryDx=0;entryDy=0;fontFamily=Comic Sans MS;fontSize=16;strokeWidth=2;strokeColor=#0000FF;" edge="1" parent="1" source="sm8_QsKVWfmT69e21qXw-9" target="sm8_QsKVWfmT69e21qXw-31">
          <mxGeometry relative="1" as="geometry">
            <Array as="points">
              <mxPoint x="380" y="505" />
              <mxPoint x="380" y="385" />
            </Array>
          </mxGeometry>
        </mxCell>
        <mxCell id="sm8_QsKVWfmT69e21qXw-35" style="edgeStyle=orthogonalEdgeStyle;rounded=0;orthogonalLoop=1;jettySize=auto;html=1;exitX=1;exitY=0.5;exitDx=0;exitDy=0;entryX=0;entryY=0.5;entryDx=0;entryDy=0;fontFamily=Comic Sans MS;fontSize=16;strokeWidth=2;strokeColor=#0000FF;" edge="1" parent="1" source="sm8_QsKVWfmT69e21qXw-9" target="sm8_QsKVWfmT69e21qXw-32">
          <mxGeometry relative="1" as="geometry">
            <Array as="points">
              <mxPoint x="380" y="505" />
              <mxPoint x="380" y="435" />
            </Array>
          </mxGeometry>
        </mxCell>
        <mxCell id="sm8_QsKVWfmT69e21qXw-36" style="edgeStyle=orthogonalEdgeStyle;rounded=0;orthogonalLoop=1;jettySize=auto;html=1;exitX=1;exitY=0.5;exitDx=0;exitDy=0;fontFamily=Comic Sans MS;fontSize=16;strokeWidth=2;strokeColor=#0000FF;" edge="1" parent="1" source="sm8_QsKVWfmT69e21qXw-9" target="sm8_QsKVWfmT69e21qXw-33">
          <mxGeometry relative="1" as="geometry" />
        </mxCell>
        <mxCell id="sm8_QsKVWfmT69e21qXw-9" value="str1" style="rounded=1;whiteSpace=wrap;html=1;fontFamily=Comic Sans MS;fontSize=16;strokeWidth=2;fillColor=#FF00FF;" vertex="1" parent="1">
          <mxGeometry x="119" y="490" width="121" height="30" as="geometry" />
        </mxCell>
        <mxCell id="sm8_QsKVWfmT69e21qXw-27" style="edgeStyle=orthogonalEdgeStyle;rounded=0;orthogonalLoop=1;jettySize=auto;html=1;exitX=1;exitY=0.5;exitDx=0;exitDy=0;entryX=0;entryY=0.5;entryDx=0;entryDy=0;fontFamily=Comic Sans MS;fontSize=16;strokeWidth=2;" edge="1" parent="1" source="sm8_QsKVWfmT69e21qXw-10" target="sm8_QsKVWfmT69e21qXw-14">
          <mxGeometry relative="1" as="geometry">
            <Array as="points">
              <mxPoint x="410" y="465" />
              <mxPoint x="410" y="285" />
            </Array>
          </mxGeometry>
        </mxCell>
        <mxCell id="sm8_QsKVWfmT69e21qXw-10" value="str2" style="rounded=1;whiteSpace=wrap;html=1;fontFamily=Comic Sans MS;fontSize=16;strokeWidth=2;fillColor=#99FFFF;" vertex="1" parent="1">
          <mxGeometry x="119" y="450" width="120" height="30" as="geometry" />
        </mxCell>
        <mxCell id="sm8_QsKVWfmT69e21qXw-29" style="edgeStyle=orthogonalEdgeStyle;rounded=0;orthogonalLoop=1;jettySize=auto;html=1;exitX=1;exitY=0.5;exitDx=0;exitDy=0;entryX=0;entryY=0.5;entryDx=0;entryDy=0;fontFamily=Comic Sans MS;fontSize=16;strokeWidth=2;" edge="1" parent="1" source="sm8_QsKVWfmT69e21qXw-11" target="sm8_QsKVWfmT69e21qXw-15">
          <mxGeometry relative="1" as="geometry">
            <Array as="points">
              <mxPoint x="370" y="425" />
              <mxPoint x="370" y="315" />
            </Array>
          </mxGeometry>
        </mxCell>
        <mxCell id="sm8_QsKVWfmT69e21qXw-11" value="str3" style="rounded=1;whiteSpace=wrap;html=1;fontFamily=Comic Sans MS;fontSize=16;strokeWidth=2;fillColor=#99FFFF;" vertex="1" parent="1">
          <mxGeometry x="120" y="410" width="120" height="30" as="geometry" />
        </mxCell>
        <mxCell id="sm8_QsKVWfmT69e21qXw-30" style="edgeStyle=orthogonalEdgeStyle;rounded=0;orthogonalLoop=1;jettySize=auto;html=1;exitX=1;exitY=0.5;exitDx=0;exitDy=0;entryX=0;entryY=0.5;entryDx=0;entryDy=0;fontFamily=Comic Sans MS;fontSize=16;strokeWidth=2;" edge="1" parent="1" source="sm8_QsKVWfmT69e21qXw-12" target="sm8_QsKVWfmT69e21qXw-16">
          <mxGeometry relative="1" as="geometry" />
        </mxCell>
        <mxCell id="sm8_QsKVWfmT69e21qXw-12" value="str4" style="rounded=1;whiteSpace=wrap;html=1;fontFamily=Comic Sans MS;fontSize=16;strokeWidth=2;fillColor=#99FFFF;" vertex="1" parent="1">
          <mxGeometry x="120" y="365" width="120" height="30" as="geometry" />
        </mxCell>
        <mxCell id="sm8_QsKVWfmT69e21qXw-13" value="&quot;a&quot;" style="rounded=1;whiteSpace=wrap;html=1;fontFamily=Comic Sans MS;fontSize=16;strokeWidth=2;fillColor=#A680B8;" vertex="1" parent="1">
          <mxGeometry x="540" y="250" width="60" height="30" as="geometry" />
        </mxCell>
        <mxCell id="sm8_QsKVWfmT69e21qXw-14" value="&quot;b&quot;" style="rounded=1;whiteSpace=wrap;html=1;fontFamily=Comic Sans MS;fontSize=16;strokeWidth=2;fillColor=#A9C4EB;" vertex="1" parent="1">
          <mxGeometry x="610" y="270" width="60" height="30" as="geometry" />
        </mxCell>
        <mxCell id="sm8_QsKVWfmT69e21qXw-15" value="&quot;c&quot;" style="rounded=1;whiteSpace=wrap;html=1;fontFamily=Comic Sans MS;fontSize=16;strokeWidth=2;fillColor=#A9C4EB;" vertex="1" parent="1">
          <mxGeometry x="540" y="300" width="60" height="30" as="geometry" />
        </mxCell>
        <mxCell id="sm8_QsKVWfmT69e21qXw-16" value="&quot;d&quot;" style="rounded=1;whiteSpace=wrap;html=1;fontFamily=Comic Sans MS;fontSize=16;strokeWidth=2;fillColor=#A9C4EB;" vertex="1" parent="1">
          <mxGeometry x="620" y="320" width="60" height="30" as="geometry" />
        </mxCell>
        <mxCell id="sm8_QsKVWfmT69e21qXw-31" value="&quot;ab&quot;" style="rounded=1;whiteSpace=wrap;html=1;fontFamily=Comic Sans MS;fontSize=16;strokeWidth=2;fillColor=#A680B8;" vertex="1" parent="1">
          <mxGeometry x="540" y="370" width="90" height="30" as="geometry" />
        </mxCell>
        <mxCell id="sm8_QsKVWfmT69e21qXw-32" value="&quot;abc&quot;" style="rounded=1;whiteSpace=wrap;html=1;fontFamily=Comic Sans MS;fontSize=16;strokeWidth=2;fillColor=#A680B8;" vertex="1" parent="1">
          <mxGeometry x="540" y="420" width="90" height="30" as="geometry" />
        </mxCell>
        <mxCell id="sm8_QsKVWfmT69e21qXw-33" value="&quot;abcd&quot;" style="rounded=1;whiteSpace=wrap;html=1;fontFamily=Comic Sans MS;fontSize=16;strokeWidth=2;fillColor=#FF00FF;" vertex="1" parent="1">
          <mxGeometry x="540" y="480" width="90" height="30" as="geometry" />
        </mxCell>
        <mxCell id="sm8_QsKVWfmT69e21qXw-37" value="" style="verticalLabelPosition=bottom;verticalAlign=top;html=1;shape=mxgraph.basic.x;fontFamily=Comic Sans MS;fontSize=16;strokeWidth=1;strokeColor=none;fillColor=#FF0000;" vertex="1" parent="1">
          <mxGeometry x="450" y="250" width="26" height="30" as="geometry" />
        </mxCell>
        <mxCell id="sm8_QsKVWfmT69e21qXw-38" value="" style="verticalLabelPosition=bottom;verticalAlign=top;html=1;shape=mxgraph.basic.x;fontFamily=Comic Sans MS;fontSize=16;strokeWidth=1;strokeColor=none;fillColor=#FF0000;" vertex="1" parent="1">
          <mxGeometry x="440" y="370" width="26" height="30" as="geometry" />
        </mxCell>
        <mxCell id="sm8_QsKVWfmT69e21qXw-39" value="" style="verticalLabelPosition=bottom;verticalAlign=top;html=1;shape=mxgraph.basic.x;fontFamily=Comic Sans MS;fontSize=16;strokeWidth=1;strokeColor=none;fillColor=#FF0000;" vertex="1" parent="1">
          <mxGeometry x="440" y="420" width="26" height="30" as="geometry" />
        </mxCell>
        <mxCell id="sm8_QsKVWfmT69e21qXw-41" value="" style="verticalLabelPosition=bottom;verticalAlign=top;html=1;shape=mxgraph.basic.tick;sketch=0;fontFamily=Comic Sans MS;fontSize=16;strokeColor=#FF0000;strokeWidth=1;fillColor=#FF0000;" vertex="1" parent="1">
          <mxGeometry x="441" y="480" width="25" height="30" as="geometry" />
        </mxCell>
      </root>
    </mxGraphModel>
  </diagram>
</mxfile>
